<svg version="1.0" xmlns="http://www.w3.org/2000/svg" width="308pt" height="308pt" viewBox="0 0 308 308" preserveAspectRatio="xMidYMid meet">
	<g transform="translate(0,308) scale(0.100000,-0.100000)" fill="#6161FD" stroke="#000000" stroke-width="5">
		<path d="M1492 3005 c-60 -17 -93 -33 -141 -69 -27 -20 -47 -26 -85 -26 -66 0 -178 -24 -214 -45 -39 -24 -81 -83 -93 -130 -10 -38 -14 -42 -55 -53 -58 -16 -122 -76 -160 -149 -26 -52 -29 -68 -29 -153 0 -52 4 -131 9 -175 l8 -80 -63 -76 c-202 -242 -291 -530 -268 -859 19 -263 127 -502 317 -700 l92 -97 0 -79 c0 -44 6 -90 13 -104 9 -18 43 -37 126 -72 174 -73 215 -82 371 -81 144 1 440 39 679 88 68 14 125 25 128 25 2 0 8 11 13 25 6 17 17 25 33 25 13 0 32 6 42 14 17 12 24 12 50 -2 40 -22 149 -21 191 1 32 17 114 104 114 122 0 6 11 30 23 55 21 43 24 45 66 46 49 1 71 21 71 63 0 38 -33 86 -69 101 -36 15 -36 16 -17 170 7 58 11 111 8 118 -2 7 -14 15 -26 18 l-22 5 18 72 c84 329 20 683 -174 964 l-50 72 18 58 c23 76 24 210 1 284 -9 30 -30 74 -47 97 -29 40 -30 45 -19 85 22 82 -13 188 -86 257 -40 39 -39 39 -77 -29 -26 -47 -50 -40 -99 29 -53 76 -120 121 -240 161 -114 39 -268 49 -357 24z m44 -541 c46 -19 174 -34 174 -20 0 5 10 20 22 33 28 30 60 29 173 -2 50 -14 130 -28 179 -32 l89 -6 35 -76 c19 -41 37 -92 40 -113 l5 -38 -49 0 c-54 0 -206 -38 -199 -50 3 -4 42 -13 87 -19 115 -17 168 -39 168 -71 0 -14 -4 -20 -8 -14 -12 18 -49 34 -79 34 -34 0 -88 -31 -103 -60 -16 -29 -8 -34 32 -20 29 11 39 10 67 -4 37 -20 51 -14 33 14 -10 17 -8 18 25 17 l35 -2 -5 -105 c-6 -115 -33 -232 -73 -319 -25 -56 -26 -56 -39 -31 -25 48 -159 99 -258 100 -58 0 -188 -29 -228 -52 -65 -36 -90 -112 -47 -142 29 -20 53 -20 102 2 38 17 41 17 75 0 57 -29 194 -18 207 17 4 11 14 9 49 -6 25 -11 51 -16 61 -12 36 14 -51 -91 -106 -129 -81 -55 -204 -92 -280 -85 -120 11 -250 99 -351 237 -27 37 -45 55 -47 46 -10 -46 104 -185 209 -255 83 -56 154 -75 254 -68 44 3 89 8 100 11 11 4 2 -3 -21 -13 -56 -28 -180 -37 -288 -21 -76 11 -107 22 -224 81 -164 82 -198 109 -240 187 -44 82 -51 142 -23 178 23 30 28 64 9 64 -7 0 -24 -9 -38 -20 -71 -55 -177 18 -204 140 -5 24 -4 25 39 22 29 -3 45 -9 45 -18 0 -7 6 -26 13 -41 l12 -27 5 44 c5 42 7 45 38 48 22 2 34 -2 38 -12 10 -27 24 -18 25 17 0 29 1 30 12 13 45 -70 102 -112 138 -101 17 6 20 12 15 33 -17 74 -18 140 -3 168 102 190 111 224 77 314 -16 43 -21 73 -17 106 5 49 21 72 81 115 l39 29 43 -35 c24 -20 60 -43 80 -51z m-736 -598 c1 -17 10 -56 21 -86 11 -30 27 -84 35 -120 27 -118 88 -190 162 -190 27 0 35 -6 49 -34 9 -19 13 -41 10 -49 -3 -9 -66 -51 -139 -95 -243 -145 -260 -156 -276 -180 -16 -24 -6 -61 86 -322 31 -87 68 -277 57 -288 -18 -19 -177 198 -235 320 -68 142 -92 243 -97 405 -10 266 44 470 178 673 l52 79 49 -41 c38 -33 48 -48 48 -72z m1641 -17 c51 -88 94 -195 121 -306 18 -71 22 -118 22 -243 1 -151 -7 -208 -41 -323 -13 -45 -16 -48 -41 -43 -15 4 -63 2 -106 -4 -44 -5 -81 -8 -83 -6 -3 2 12 55 31 118 36 113 42 151 30 182 -3 9 -50 54 -104 101 -54 47 -102 94 -105 105 -4 14 4 39 23 73 34 60 74 181 92 280 7 37 15 67 19 67 3 0 21 -4 38 -9 l32 -9 -5 66 -5 67 21 -25 c12 -13 39 -54 61 -91z m-342 -608 c-8 -66 -16 -101 -23 -98 -6 2 -44 15 -83 28 -40 12 -73 26 -73 29 0 3 24 17 53 32 28 14 70 45 92 70 22 24 41 44 43 43 1 -1 -3 -48 -9 -104z m-624 -58 c22 -8 95 -18 163 -21 l123 -7 -71 -85 c-40 -47 -73 -86 -74 -87 -3 -3 -296 256 -296 262 0 2 26 -8 58 -22 31 -14 75 -32 97 -40z m605 -121 c0 -21 -9 -116 -20 -212 -11 -96 -20 -184 -21 -195 0 -11 -12 39 -25 110 -13 72 -32 154 -42 184 l-18 54 34 58 c33 55 35 57 63 47 25 -9 29 -15 29 -46z m-315 -248 c1 -93 6 -178 10 -189 8 -24 -31 36 -137 208 -43 70 -75 127 -71 127 4 0 17 -10 30 -22 15 -14 27 -19 31 -12 4 6 25 32 46 58 l39 47 24 -24 c24 -23 25 -30 28 -193z m577 -45 c19 -10 20 -17 14 -75 -4 -42 -3 -72 5 -86 10 -18 8 -24 -7 -36 -18 -13 -18 -14 6 -9 14 2 54 12 89 22 131 35 247 3 239 -65 -3 -24 -5 -25 -73 -22 -45 2 -85 -3 -110 -13 l-40 -15 45 5 c85 10 90 -33 8 -73 l-43 -21 33 -1 c30 0 32 -2 22 -21 -6 -11 -25 -28 -41 -38 -20 -12 -26 -20 -17 -23 7 -3 -6 -15 -31 -28 -52 -26 -132 -25 -175 3 -22 15 -26 25 -26 67 0 27 -7 86 -16 130 -17 85 -11 114 24 108 25 -5 38 66 23 122 -11 42 -11 46 10 62 25 21 33 22 61 7z m-167 -271 c8 -29 18 -89 21 -134 l7 -81 -33 -12 c-18 -6 -35 -9 -37 -7 -3 3 -43 258 -43 277 0 5 16 9 35 9 33 0 35 -2 50 -52z" />
		<path d="M1515 2349 c-25 -23 -45 -46 -45 -50 0 -5 24 -6 53 -3 40 4 70 0 132 -20 57 -18 102 -26 158 -26 42 0 77 3 77 8 0 4 -26 19 -57 34 -32 15 -87 43 -122 62 -91 51 -136 50 -196 -5z" />
		<path d="M1678 2176 c-88 -32 -132 -85 -124 -151 10 -82 99 -114 157 -56 38 39 37 51 -6 51 -43 0 -46 18 -5 33 38 15 38 32 -1 56 l-31 19 56 13 c59 13 68 22 37 39 -25 13 -37 12 -83 -4z" />
		<path d="M1944 2078 c8 -51 36 -101 105 -187 28 -35 51 -72 51 -82 0 -32 -144 -94 -190 -82 -12 3 -27 20 -34 37 l-13 31 -7 -25 c-4 -14 -2 -38 4 -54 10 -28 12 -28 74 -24 79 5 192 57 207 95 16 43 10 63 -32 106 -54 55 -127 157 -140 196 -16 47 -33 39 -25 -11z" />
	</g>
</svg>
